<?xml version="1.0" encoding="utf-8"?>
<svg xmlns="http://www.w3.org/2000/svg" style="margin: auto; background: rgb(241, 242, 243); display: block; shape-rendering: auto;" width="280" height="250" preserveAspectRatio="xMidYMid">
<style type="text/css">
  text {
    text-anchor: middle; font-size: 43px; opacity: 0;
  }
</style>
<g style="transform-origin:140px 125px;transform:scale(1)">
<g transform="translate(140,125)">
  <g transform="translate(0,0)"><g class="path" style="transform: rotate(0deg); transform-origin: -99.5483px 1.16596px 0px; animation: 1s linear -0.5775s infinite normal forwards running spin-1997df5c-d0b5-4f3f-8e33-494c68ec1f60;"><path d="M27.76-13.90L27.76-13.90L27.76-13.90Q27.76-11.44 27.16-8.78L27.16-8.78L27.16-8.78Q26.56-6.11 25.49-3.55L25.49-3.55L25.49-3.55Q24.42-0.99 22.93 1.27L22.93 1.27L22.93 1.27Q21.44 3.53 19.65 5.17L19.65 5.17L16.99 3.72L16.99 3.72Q17.55 2.67 18.06 1.36L18.06 1.36L18.06 1.36Q18.56 0.06 18.97-1.40L18.97-1.40L18.97-1.40Q19.38-2.86 19.70-4.41L19.70-4.41L19.70-4.41Q20.03-5.96 20.25-7.49L20.25-7.49L20.25-7.49Q20.47-9.01 20.59-10.45L20.59-10.45L20.59-10.45Q20.70-11.88 20.70-13.12L20.70-13.12L20.70-13.12Q20.70-13.94 20.64-14.88L20.64-14.88L20.64-14.88Q20.58-15.81 20.38-16.74L20.38-16.74L20.38-16.74Q20.18-17.68 19.84-18.54L19.84-18.54L19.84-18.54Q19.51-19.40 18.95-20.05L18.95-20.05L18.95-20.05Q18.39-20.70 17.61-21.10L17.61-21.10L17.61-21.10Q16.82-21.50 15.75-21.50L15.75-21.50L15.75-21.50Q14.70-21.50 13.88-21.03L13.88-21.03L13.88-21.03Q13.06-20.56 12.43-19.79L12.43-19.79L12.43-19.79Q11.80-19.02 11.35-18.04L11.35-18.04L11.35-18.04Q10.90-17.05 10.61-16.01L10.61-16.01L10.61-16.01Q10.33-14.97 10.20-13.96L10.20-13.96L10.20-13.96Q10.08-12.95 10.08-12.16L10.08-12.16L10.08 0L2.96 0L2.96-33.17L10.06-33.17L10.06-20.68L10.06-20.68Q11.42-22.68 13.41-23.76L13.41-23.76L13.41-23.76Q15.39-24.84 17.80-24.84L17.80-24.84L17.80-24.84Q20.32-24.84 22.19-24.02L22.19-24.02L22.19-24.02Q24.06-23.20 25.30-21.74L25.30-21.74L25.30-21.74Q26.54-20.28 27.15-18.28L27.15-18.28L27.15-18.28Q27.76-16.27 27.76-13.90" fill="#99e2d0" stroke="none" stroke-width="none" transform="translate(-114.90833282470703,15.165958671569824)" style="fill: rgb(153, 226, 208);"></path></g><g class="path" style="transform: rotate(0deg); transform-origin: -70.3883px 2.98596px 0px; animation: 1s linear -0.495s infinite normal forwards running spin-1997df5c-d0b5-4f3f-8e33-494c68ec1f60;"><path d="M58.05-12.18L58.05-12.18L58.05-12.18Q58.05-10.29 57.55-8.63L57.55-8.63L57.55-8.63Q57.05-6.97 56.15-5.56L56.15-5.56L56.15-5.56Q55.26-4.16 54.00-3.03L54.00-3.03L54.00-3.03Q52.74-1.91 51.24-1.13L51.24-1.13L51.24-1.13Q49.74-0.36 48.03 0.06L48.03 0.06L48.03 0.06Q46.32 0.48 44.51 0.48L44.51 0.48L44.51 0.48Q42.71 0.48 41.01 0.06L41.01 0.06L41.01 0.06Q39.30-0.36 37.80-1.13L37.80-1.13L37.80-1.13Q36.30-1.91 35.04-3.03L35.04-3.03L35.04-3.03Q33.78-4.16 32.89-5.56L32.89-5.56L32.89-5.56Q32.00-6.97 31.49-8.64L31.49-8.64L31.49-8.64Q30.99-10.31 30.99-12.18L30.99-12.18L30.99-12.18Q30.99-14.05 31.49-15.72L31.49-15.72L31.49-15.72Q32.00-17.38 32.89-18.79L32.89-18.79L32.89-18.79Q33.78-20.20 35.04-21.32L35.04-21.32L35.04-21.32Q36.30-22.44 37.80-23.22L37.80-23.22L37.80-23.22Q39.30-24.00 41.01-24.42L41.01-24.42L41.01-24.42Q42.71-24.84 44.51-24.84L44.51-24.84L44.51-24.84Q46.32-24.84 48.03-24.42L48.03-24.42L48.03-24.42Q49.74-24.00 51.24-23.22L51.24-23.22L51.24-23.22Q52.74-22.44 54.00-21.32L54.00-21.32L54.00-21.32Q55.26-20.20 56.15-18.79L56.15-18.79L56.15-18.79Q57.05-17.38 57.55-15.72L57.55-15.72L57.55-15.72Q58.05-14.05 58.05-12.18zM50.83-12.18L50.83-12.18L50.83-12.18Q50.83-13.19 50.72-14.31L50.72-14.31L50.72-14.31Q50.60-15.43 50.33-16.51L50.33-16.51L50.33-16.51Q50.05-17.59 49.58-18.59L49.58-18.59L49.58-18.59Q49.11-19.59 48.42-20.33L48.42-20.33L48.42-20.33Q47.72-21.08 46.76-21.53L46.76-21.53L46.76-21.53Q45.79-21.98 44.51-21.98L44.51-21.98L44.51-21.98Q43.29-21.98 42.35-21.52L42.35-21.52L42.35-21.52Q41.40-21.06 40.70-20.29L40.70-20.29L40.70-20.29Q40.00-19.53 39.53-18.52L39.53-18.52L39.53-18.52Q39.05-17.51 38.76-16.43L38.76-16.43L38.76-16.43Q38.46-15.35 38.34-14.25L38.34-14.25L38.34-14.25Q38.21-13.14 38.21-12.18L38.21-12.18L38.21-12.18Q38.21-11.21 38.34-10.11L38.34-10.11L38.34-10.11Q38.46-9.01 38.76-7.92L38.76-7.92L38.76-7.92Q39.05-6.82 39.53-5.83L39.53-5.83L39.53-5.83Q40.00-4.83 40.70-4.06L40.70-4.06L40.70-4.06Q41.40-3.30 42.35-2.83L42.35-2.83L42.35-2.83Q43.29-2.37 44.51-2.37L44.51-2.37L44.51-2.37Q45.77-2.37 46.74-2.82L46.74-2.82L46.74-2.82Q47.70-3.28 48.41-4.03L48.41-4.03L48.41-4.03Q49.11-4.79 49.57-5.77L49.57-5.77L49.57-5.77Q50.03-6.76 50.32-7.85L50.32-7.85L50.32-7.85Q50.60-8.94 50.72-10.06L50.72-10.06L50.72-10.06Q50.83-11.17 50.83-12.18" fill="#99e2d0" stroke="none" stroke-width="none" transform="translate(-114.90833282470703,15.165958671569824)" style="fill: rgb(0, 135, 102);"></path></g><g class="path" style="transform: rotate(0deg); transform-origin: -33.6183px 5.33096px 0px; animation: 1s linear -0.4125s infinite normal forwards running spin-1997df5c-d0b5-4f3f-8e33-494c68ec1f60;"><path d="M100.05-14.15L100.05-14.15L100.05-14.15Q100.05-11.65 99.46-8.94L99.46-8.94L99.46-8.94Q98.87-6.24 97.81-3.66L97.81-3.66L97.81-3.66Q96.75-1.09 95.26 1.20L95.26 1.20L95.26 1.20Q93.77 3.49 91.94 5.17L91.94 5.17L89.28 3.72L89.28 3.72Q89.88 2.62 90.39 1.26L90.39 1.26L90.39 1.26Q90.89-0.10 91.31-1.62L91.31-1.62L91.31-1.62Q91.73-3.13 92.05-4.72L92.05-4.72L92.05-4.72Q92.36-6.32 92.58-7.91L92.58-7.91L92.58-7.91Q92.80-9.49 92.91-10.98L92.91-10.98L92.91-10.98Q93.01-12.47 93.01-13.77L93.01-13.77L93.01-13.77Q93.01-14.51 92.97-15.37L92.97-15.37L92.97-15.37Q92.93-16.23 92.79-17.09L92.79-17.09L92.79-17.09Q92.66-17.95 92.38-18.74L92.38-18.74L92.38-18.74Q92.11-19.53 91.64-20.15L91.64-20.15L91.64-20.15Q91.17-20.77 90.46-21.13L90.46-21.13L90.46-21.13Q89.76-21.50 88.77-21.50L88.77-21.50L88.77-21.50Q87.81-21.50 87.12-20.99L87.12-20.99L87.12-20.99Q86.44-20.47 85.96-19.65L85.96-19.65L85.96-19.65Q85.48-18.83 85.19-17.80L85.19-17.80L85.19-17.80Q84.91-16.78 84.76-15.74L84.76-15.74L84.76-15.74Q84.61-14.70 84.56-13.75L84.56-13.75L84.56-13.75Q84.51-12.81 84.51-12.16L84.51-12.16L84.51 0L77.43 0L77.43-11.30L77.43-11.30Q77.43-12.03 77.45-13.07L77.45-13.07L77.45-13.07Q77.48-14.11 77.40-15.24L77.40-15.24L77.40-15.24Q77.33-16.38 77.13-17.50L77.13-17.50L77.13-17.50Q76.93-18.62 76.50-19.51L76.50-19.51L76.50-19.51Q76.07-20.39 75.33-20.94L75.33-20.94L75.33-20.94Q74.60-21.50 73.49-21.50L73.49-21.50L73.49-21.50Q72.54-21.50 71.90-20.98L71.90-20.98L71.90-20.98Q71.26-20.45 70.83-19.62L70.83-19.62L70.83-19.62Q70.40-18.79 70.16-17.75L70.16-17.75L70.16-17.75Q69.92-16.71 69.80-15.67L69.80-15.67L69.80-15.67Q69.69-14.63 69.67-13.70L69.67-13.70L69.67-13.70Q69.64-12.77 69.64-12.16L69.64-12.16L69.64 0L62.53 0L62.53-24.25L65.26-24.25L67.86-18.60L67.86-18.60Q68.74-21.54 70.64-23.19L70.64-23.19L70.64-23.19Q72.54-24.84 75.69-24.84L75.69-24.84L75.69-24.84Q78.53-24.84 80.39-23.66L80.39-23.66L80.39-23.66Q82.26-22.49 83.33-19.84L83.33-19.84L83.33-19.84Q83.94-21.00 84.69-21.92L84.69-21.92L84.69-21.92Q85.43-22.84 86.35-23.49L86.35-23.49L86.35-23.49Q87.26-24.15 88.37-24.49L88.37-24.49L88.37-24.49Q89.49-24.84 90.83-24.84L90.83-24.84L90.83-24.84Q93.31-24.84 95.06-24.03L95.06-24.03L95.06-24.03Q96.81-23.22 97.93-21.79L97.93-21.79L97.93-21.79Q99.04-20.37 99.54-18.40L99.54-18.40L99.54-18.40Q100.05-16.44 100.05-14.15" fill="#99e2d0" stroke="none" stroke-width="none" transform="translate(-114.90833282470703,15.165958671569824)" style="fill: rgb(137, 200, 250);"></path></g><g class="path" style="transform: rotate(0deg); transform-origin: -1.07833px 8.63596px 0px; animation: 1s linear -0.33s infinite normal forwards running spin-1997df5c-d0b5-4f3f-8e33-494c68ec1f60;"><path d="M121.29-24.25L126.21-24.25L117.39-2.92L117.39-2.92Q115.88 0.73 114.02 4.31L114.02 4.31L114.02 4.31Q112.16 7.89 110.00 11.19L110.00 11.19L107.23 9.51L107.23 9.51Q107.75 8.57 108.47 7.33L108.47 7.33L108.47 7.33Q109.18 6.09 109.87 4.77L109.87 4.77L109.87 4.77Q110.57 3.44 111.15 2.15L111.15 2.15L111.15 2.15Q111.74 0.86 112.06-0.21L112.06-0.21L101.45-24.25L108.55-24.25L115.75-7.85L121.29-24.25" fill="#99e2d0" stroke="none" stroke-width="none" transform="translate(-114.90833282470703,15.165958671569824)" style="fill: rgb(0, 58, 104);"></path></g><g class="path" style="transform: rotate(0deg); transform-origin: 24.3867px -3.29904px 0px; animation: 1s linear -0.2475s infinite normal forwards running spin-1997df5c-d0b5-4f3f-8e33-494c68ec1f60;"><path d="M151.82-34.22L151.82-34.22L147.81-27.59L147.81-27.59Q147.75-28.39 147.52-29.43L147.52-29.43L147.52-29.43Q147.29-30.47 146.75-31.39L146.75-31.39L146.75-31.39Q146.22-32.31 145.28-32.95L145.28-32.95L145.28-32.95Q144.35-33.59 142.90-33.59L142.90-33.59L142.90-33.59Q141.41-33.59 140.51-33.01L140.51-33.01L140.51-33.01Q139.60-32.42 139.12-31.24L139.12-31.24L139.12-31.24Q138.64-30.07 138.47-28.32L138.47-28.32L138.47-28.32Q138.30-26.58 138.30-24.27L138.30-24.27L145.65-24.27L145.65-21.46L138.30-21.46L138.30 0L131.18 0L131.18-21.46L126.77-21.46L126.77-24.27L131.18-24.27L131.18-24.27Q131.18-27.61 131.90-30.00L131.90-30.00L131.90-30.00Q132.61-32.40 134.06-33.94L134.06-33.94L134.06-33.94Q135.51-35.48 137.70-36.21L137.70-36.21L137.70-36.21Q139.90-36.93 142.84-36.93L142.84-36.93L142.84-36.93Q144.60-36.93 146.00-36.69L146.00-36.69L146.00-36.69Q147.39-36.45 148.47-36.06L148.47-36.06L148.47-36.06Q149.56-35.67 150.37-35.19L150.37-35.19L150.37-35.19Q151.19-34.71 151.82-34.22" fill="#99e2d0" stroke="none" stroke-width="none" transform="translate(-114.90833282470703,15.165958671569824)" style="fill: rgb(147, 86, 220);"></path></g><g class="path" style="transform: rotate(0deg); transform-origin: 45.2817px 2.98596px 0px; animation: 1s linear -0.165s infinite normal forwards running spin-1997df5c-d0b5-4f3f-8e33-494c68ec1f60;"><path d="M173.72-12.18L173.72-12.18L173.72-12.18Q173.72-10.29 173.22-8.63L173.22-8.63L173.22-8.63Q172.71-6.97 171.82-5.56L171.82-5.56L171.82-5.56Q170.93-4.16 169.67-3.03L169.67-3.03L169.67-3.03Q168.41-1.91 166.91-1.13L166.91-1.13L166.91-1.13Q165.41-0.36 163.70 0.06L163.70 0.06L163.70 0.06Q161.98 0.48 160.18 0.48L160.18 0.48L160.18 0.48Q158.37 0.48 156.67 0.06L156.67 0.06L156.67 0.06Q154.97-0.36 153.47-1.13L153.47-1.13L153.47-1.13Q151.97-1.91 150.71-3.03L150.71-3.03L150.71-3.03Q149.45-4.16 148.56-5.56L148.56-5.56L148.56-5.56Q147.67-6.97 147.16-8.64L147.16-8.64L147.16-8.64Q146.66-10.31 146.66-12.18L146.66-12.18L146.66-12.18Q146.66-14.05 147.16-15.72L147.16-15.72L147.16-15.72Q147.67-17.38 148.56-18.79L148.56-18.79L148.56-18.79Q149.45-20.20 150.71-21.32L150.71-21.32L150.71-21.32Q151.97-22.44 153.47-23.22L153.47-23.22L153.47-23.22Q154.97-24.00 156.67-24.42L156.67-24.42L156.67-24.42Q158.37-24.84 160.18-24.84L160.18-24.84L160.18-24.84Q161.98-24.84 163.70-24.42L163.70-24.42L163.70-24.42Q165.41-24.00 166.91-23.22L166.91-23.22L166.91-23.22Q168.41-22.44 169.67-21.32L169.67-21.32L169.67-21.32Q170.93-20.20 171.82-18.79L171.82-18.79L171.82-18.79Q172.71-17.38 173.22-15.72L173.22-15.72L173.22-15.72Q173.72-14.05 173.72-12.18zM166.50-12.18L166.50-12.18L166.50-12.18Q166.50-13.19 166.38-14.31L166.38-14.31L166.38-14.31Q166.27-15.43 166.00-16.51L166.00-16.51L166.00-16.51Q165.72-17.59 165.25-18.59L165.25-18.59L165.25-18.59Q164.78-19.59 164.08-20.33L164.08-20.33L164.08-20.33Q163.39-21.08 162.43-21.53L162.43-21.53L162.43-21.53Q161.46-21.98 160.18-21.98L160.18-21.98L160.18-21.98Q158.96-21.98 158.02-21.52L158.02-21.52L158.02-21.52Q157.07-21.06 156.37-20.29L156.37-20.29L156.37-20.29Q155.67-19.53 155.19-18.52L155.19-18.52L155.19-18.52Q154.72-17.51 154.43-16.43L154.43-16.43L154.43-16.43Q154.13-15.35 154.01-14.25L154.01-14.25L154.01-14.25Q153.88-13.14 153.88-12.18L153.88-12.18L153.88-12.18Q153.88-11.21 154.01-10.11L154.01-10.11L154.01-10.11Q154.13-9.01 154.43-7.92L154.43-7.92L154.43-7.92Q154.72-6.82 155.19-5.83L155.19-5.83L155.19-5.83Q155.67-4.83 156.37-4.06L156.37-4.06L156.37-4.06Q157.07-3.30 158.02-2.83L158.02-2.83L158.02-2.83Q158.96-2.37 160.18-2.37L160.18-2.37L160.18-2.37Q161.44-2.37 162.40-2.82L162.40-2.82L162.40-2.82Q163.37-3.28 164.07-4.03L164.07-4.03L164.07-4.03Q164.78-4.79 165.24-5.77L165.24-5.77L165.24-5.77Q165.70-6.76 165.98-7.85L165.98-7.85L165.98-7.85Q166.27-8.94 166.38-10.06L166.38-10.06L166.38-10.06Q166.50-11.17 166.50-12.18" fill="#99e2d0" stroke="none" stroke-width="none" transform="translate(-114.90833282470703,15.165958671569824)" style="fill: rgb(153, 226, 208);"></path></g><g class="path" style="transform: rotate(0deg); transform-origin: 75.3717px 2.98596px 0px; animation: 1s linear -0.0825s infinite normal forwards running spin-1997df5c-d0b5-4f3f-8e33-494c68ec1f60;"><path d="M203.81-12.18L203.81-12.18L203.81-12.18Q203.81-10.29 203.31-8.63L203.31-8.63L203.31-8.63Q202.80-6.97 201.91-5.56L201.91-5.56L201.91-5.56Q201.02-4.16 199.76-3.03L199.76-3.03L199.76-3.03Q198.50-1.91 197.00-1.13L197.00-1.13L197.00-1.13Q195.49-0.36 193.78 0.06L193.78 0.06L193.78 0.06Q192.07 0.48 190.27 0.48L190.27 0.48L190.27 0.48Q188.46 0.48 186.76 0.06L186.76 0.06L186.76 0.06Q185.06-0.36 183.56-1.13L183.56-1.13L183.56-1.13Q182.06-1.91 180.80-3.03L180.80-3.03L180.80-3.03Q179.54-4.16 178.65-5.56L178.65-5.56L178.65-5.56Q177.75-6.97 177.25-8.64L177.25-8.64L177.25-8.64Q176.75-10.31 176.75-12.18L176.75-12.18L176.75-12.18Q176.75-14.05 177.25-15.72L177.25-15.72L177.25-15.72Q177.75-17.38 178.65-18.79L178.65-18.79L178.65-18.79Q179.54-20.20 180.80-21.32L180.80-21.32L180.80-21.32Q182.06-22.44 183.56-23.22L183.56-23.22L183.56-23.22Q185.06-24.00 186.76-24.42L186.76-24.42L186.76-24.42Q188.46-24.84 190.27-24.84L190.27-24.84L190.27-24.84Q192.07-24.84 193.78-24.42L193.78-24.42L193.78-24.42Q195.49-24.00 197.00-23.22L197.00-23.22L197.00-23.22Q198.50-22.44 199.76-21.32L199.76-21.32L199.76-21.32Q201.02-20.20 201.91-18.79L201.91-18.79L201.91-18.79Q202.80-17.38 203.31-15.72L203.31-15.72L203.31-15.72Q203.81-14.05 203.81-12.18zM196.59-12.18L196.59-12.18L196.59-12.18Q196.59-13.19 196.47-14.31L196.47-14.31L196.47-14.31Q196.36-15.43 196.08-16.51L196.08-16.51L196.08-16.51Q195.81-17.59 195.34-18.59L195.34-18.59L195.34-18.59Q194.86-19.59 194.17-20.33L194.17-20.33L194.17-20.33Q193.48-21.08 192.51-21.53L192.51-21.53L192.51-21.53Q191.55-21.98 190.27-21.98L190.27-21.98L190.27-21.98Q189.05-21.98 188.10-21.52L188.10-21.52L188.10-21.52Q187.16-21.06 186.46-20.29L186.46-20.29L186.46-20.29Q185.75-19.53 185.28-18.52L185.28-18.52L185.28-18.52Q184.81-17.51 184.51-16.43L184.51-16.43L184.51-16.43Q184.22-15.35 184.09-14.25L184.09-14.25L184.09-14.25Q183.97-13.14 183.97-12.18L183.97-12.18L183.97-12.18Q183.97-11.21 184.09-10.11L184.09-10.11L184.09-10.11Q184.22-9.01 184.51-7.92L184.51-7.92L184.51-7.92Q184.81-6.82 185.28-5.83L185.28-5.83L185.28-5.83Q185.75-4.83 186.46-4.06L186.46-4.06L186.46-4.06Q187.16-3.30 188.10-2.83L188.10-2.83L188.10-2.83Q189.05-2.37 190.27-2.37L190.27-2.37L190.27-2.37Q191.53-2.37 192.49-2.82L192.49-2.82L192.49-2.82Q193.46-3.28 194.16-4.03L194.16-4.03L194.16-4.03Q194.86-4.79 195.33-5.77L195.33-5.77L195.33-5.77Q195.79-6.76 196.07-7.85L196.07-7.85L196.07-7.85Q196.36-8.94 196.47-10.06L196.47-10.06L196.47-10.06Q196.59-11.17 196.59-12.18" fill="#99e2d0" stroke="none" stroke-width="none" transform="translate(-114.90833282470703,15.165958671569824)" style="fill: rgb(0, 135, 102);"></path></g><g class="path" style="transform: rotate(0deg); transform-origin: 104.922px -1.13404px 0px; animation: 1s linear 0s infinite normal forwards running spin-1997df5c-d0b5-4f3f-8e33-494c68ec1f60;"><path d="M232.72-33.17L232.72 0L229.99 0L226.84-5.27L226.84-5.27Q226.38-3.95 225.57-2.88L225.57-2.88L225.57-2.88Q224.76-1.81 223.70-1.04L223.70-1.04L223.70-1.04Q222.64-0.27 221.37 0.15L221.37 0.15L221.37 0.15Q220.10 0.57 218.70 0.57L218.70 0.57L218.70 0.57Q215.92 0.57 213.74-0.42L213.74-0.42L213.74-0.42Q211.56-1.41 210.04-3.12L210.04-3.12L210.04-3.12Q208.53-4.83 207.74-7.14L207.74-7.14L207.74-7.14Q206.94-9.45 206.94-12.09L206.94-12.09L206.94-12.09Q206.94-14.74 207.74-17.05L207.74-17.05L207.74-17.05Q208.53-19.36 210.04-21.06L210.04-21.06L210.04-21.06Q211.56-22.76 213.74-23.75L213.74-23.75L213.74-23.75Q215.92-24.73 218.70-24.73L218.70-24.73L218.70-24.73Q220.82-24.73 222.59-23.91L222.59-23.91L222.59-23.91Q224.36-23.10 225.62-21.35L225.62-21.35L225.62-33.17L232.72-33.17zM225.58-12.09L225.58-12.09L225.58-12.09Q225.58-12.93 225.46-13.94L225.46-13.94L225.46-13.94Q225.33-14.95 225.06-15.98L225.06-15.98L225.06-15.98Q224.78-17.01 224.34-17.97L224.34-17.97L224.34-17.97Q223.90-18.94 223.26-19.69L223.26-19.69L223.26-19.69Q222.62-20.45 221.77-20.90L221.77-20.90L221.77-20.90Q220.92-21.35 219.83-21.35L219.83-21.35L219.83-21.35Q218.63-21.35 217.75-20.92L217.75-20.92L217.75-20.92Q216.87-20.49 216.24-19.77L216.24-19.77L216.24-19.77Q215.61-19.04 215.20-18.10L215.20-18.10L215.20-18.10Q214.79-17.15 214.56-16.13L214.56-16.13L214.56-16.13Q214.33-15.10 214.23-14.06L214.23-14.06L214.23-14.06Q214.14-13.02 214.14-12.09L214.14-12.09L214.14-12.09Q214.14-11.17 214.23-10.13L214.23-10.13L214.23-10.13Q214.33-9.09 214.56-8.06L214.56-8.06L214.56-8.06Q214.79-7.03 215.20-6.08L215.20-6.08L215.20-6.08Q215.61-5.12 216.24-4.40L216.24-4.40L216.24-4.40Q216.87-3.67 217.75-3.24L217.75-3.24L217.75-3.24Q218.63-2.81 219.83-2.81L219.83-2.81L219.83-2.81Q221.03-2.81 221.93-3.23L221.93-3.23L221.93-3.23Q222.83-3.65 223.47-4.38L223.47-4.38L223.47-4.38Q224.11-5.10 224.52-6.04L224.52-6.04L224.52-6.04Q224.93-6.97 225.16-8.01L225.16-8.01L225.16-8.01Q225.39-9.05 225.49-10.10L225.49-10.10L225.49-10.10Q225.58-11.15 225.58-12.09" fill="#99e2d0" stroke="none" stroke-width="none" transform="translate(-114.90833282470703,15.165958671569824)" style="fill: rgb(137, 200, 250);"></path></g></g>
</g>
</g>
<style id="spin-1997df5c-d0b5-4f3f-8e33-494c68ec1f60" data-anikit="">@keyframes spin-1997df5c-d0b5-4f3f-8e33-494c68ec1f60
{
  0% {
    animation-timing-function: cubic-bezier(0.5856,0.0703,0.4143,0.9297);
    transform: rotate(0deg);
  }
  100% {
    transform: rotate(360deg);
  }
}</style></svg>