<?xml version="1.0" encoding="UTF-8"?>
<svg width="5.8256mm" height="5.5467mm" version="1.1" viewBox="0 0 5.8256 5.5467" xml:space="preserve" xmlns="http://www.w3.org/2000/svg"><g transform="translate(-102.1 -145.97)"><g transform="matrix(.26458 0 0 .26458 101.97 145.96)" fill="none"><path d="m12.721 2.4055-2e-4 2.5e-4 -0.8465 0.95156-0.3736 0.41995-0.3735-0.41995-0.8465-0.95156-6e-4 -6.2e-4c-1.9972-2.2526-5.1823-2.5748-7.3033-0.60313-2.4942 2.3225-2.6316 6.5216-0.39184 9.0475l8.3142 9.3653c0 1e-4 0 1e-4 1e-4 1e-4 0.3381 0.3806 0.8604 0.3806 1.1986 0 0 0 1e-4 0 1e-4 -1e-4l8.3144-9.3655 1e-4 -1e-4c2.2436-2.5258 2.1063-6.7246-0.3878-9.0471-2.4351-1.9044-4.9946-1.6314-7.3037 0.60338z" stroke="#101010"/></g></g></svg>